<svg width="850" height="937" viewBox="0 0 850 937" fill="none" xmlns="http://www.w3.org/2000/svg">
<path d="M850 937L508.712 368.796V630.384H585.985V808.35H508.712V937H850Z" fill="#013814"/>
<path d="M324.116 808.35V937H0V808.35H324.116Z" fill="#013814"/>
<path d="M0 0V598.222L246.843 317.336V0H0Z" fill="#04B03E"/>
<path d="M534.47 0L371.338 182.254H508.712V368.796L850 0H534.47Z" fill="#04B03E"/>
<path d="M324.116 473.86V664.691L294.066 630.384H188.889L324.116 473.86Z" fill="#013814"/>
<path d="M543.403 901V842.818H567.438C571.794 842.818 575.553 843.67 578.716 845.375C581.898 847.061 584.35 849.419 586.074 852.449C587.797 855.46 588.659 858.964 588.659 862.96C588.659 866.975 587.778 870.489 586.017 873.5C584.275 876.492 581.784 878.812 578.545 880.46C575.307 882.108 571.462 882.932 567.011 882.932H552.182V871.852H564.398C566.519 871.852 568.29 871.483 569.71 870.744C571.15 870.006 572.239 868.973 572.977 867.648C573.716 866.303 574.085 864.741 574.085 862.96C574.085 861.161 573.716 859.608 572.977 858.301C572.239 856.975 571.15 855.953 569.71 855.233C568.271 854.513 566.5 854.153 564.398 854.153H557.466V901H543.403ZM595.591 901V842.818H609.653V889.58H633.858V901H595.591ZM654.504 901H639.391L659.021 842.818H677.743L697.374 901H682.26L668.595 857.477H668.141L654.504 901ZM652.487 878.102H684.078V888.784H652.487V878.102ZM694.803 842.818H710.513L722.814 867.165H723.325L735.626 842.818H751.337L730.058 881.568V901H716.081V881.568L694.803 842.818Z" fill="#121212"/>
</svg>
